<svg width="126" height="100" viewBox="0 0 126 100" fill="none" xmlns="http://www.w3.org/2000/svg">
<g clip-path="url(#clip0_6_62)">
<path d="M55.1236 32.1538H64.3688C67.1648 32.1538 69.0554 32.7819 70.2079 33.6994C71.2911 34.5616 71.9534 35.8609 71.9538 37.8194L55.1236 32.1538ZM55.1236 32.1538V44.0376H62.5949C66.0319 44.0376 68.394 43.3386 69.8457 42.2857C71.2027 41.3016 71.9537 39.8765 71.9538 37.8197L55.1236 32.1538ZM15.8435 13.0072L15.8435 13.0071C15.6414 7.21817 20.1573 2.01254 26.0662 2.01196C26.0665 2.01196 26.0668 2.01196 26.0672 2.01196H99.4444C105.353 2.01196 109.869 7.21851 109.667 13.0071C109.437 19.6045 109.723 28.3318 111.952 35.5521L111.952 35.5524C113.991 42.1508 117.525 47.1773 123.502 48.5278V51.4718C117.525 52.8213 113.99 57.8498 111.952 64.4477L111.952 64.448C109.723 71.6692 109.437 80.3954 109.667 86.9928C109.869 92.7824 105.354 97.988 99.4444 97.988H26.0681C20.1575 97.988 15.6411 92.7811 15.8432 86.9929L15.8432 86.9928C16.0733 80.3955 15.7876 71.6692 13.5582 64.448L13.5581 64.4478C11.5196 57.8473 7.97706 52.8224 2 51.4722V48.5281C7.97738 47.1785 11.5198 42.1512 13.5583 35.5524L13.5584 35.552C15.7876 28.3308 16.0735 19.6046 15.8435 13.0072ZM66.5192 78.5895C72.6133 78.5895 77.7515 77.0984 81.4068 74.135C85.1142 71.1295 87.0862 66.7755 87.0862 61.5538C87.0862 55.3044 83.6878 50.4069 78.4084 48.0223C82.0185 45.505 84.4075 41.2593 84.4075 36.6777C84.4075 32.0901 82.576 28.1992 79.3055 25.491C76.0714 22.8129 71.5827 21.4107 66.407 21.4107H46.7973C45.7027 21.4107 44.6529 21.8456 43.879 22.6196C43.105 23.3935 42.6701 24.4433 42.6701 25.5379V74.4624C42.6701 75.557 43.105 76.6067 43.879 77.3807C44.6529 78.1547 45.7027 78.5895 46.7973 78.5895H66.5192ZM64.7826 67.8443H55.1236V54.3389H64.2923C68.1024 54.3389 70.6538 55.051 72.2055 56.1595C73.6407 57.1849 74.4437 58.7074 74.4437 61.0368C74.4437 63.3929 73.6474 64.9565 72.2659 66.0008C70.7906 67.1159 68.3749 67.8443 64.7826 67.8443Z" fill="#854FEE" stroke="#854FEE" stroke-width="4"/>
</g>
<defs>
<clipPath id="clip0_6_62">
<rect width="125.502" height="100" fill="white"/>
</clipPath>
</defs>
</svg>
