<svg width="87" height="100" viewBox="0 0 87 100" fill="none" xmlns="http://www.w3.org/2000/svg">
<g clip-path="url(#clip0_6_5)">
<path d="M43.8201 98.0868L9.1658 88.2788L2.16946 2.17222L84.8208 2.34339L77.4219 88.2885L43.8201 98.0868Z" stroke="#854FEE" stroke-width="4" stroke-linejoin="round"/>
<path d="M45.44 41.3209H67.582L64.9216 73.1931L43.8691 79.9106L21.8974 73.766L20.6127 58.3412H29.3167L30.116 65.7197C30.1609 66.1337 30.4577 66.4766 30.861 66.5804L42.5043 69.5768C42.6487 69.6139 42.7996 69.6183 42.9459 69.5896L55.784 67.0721C56.2187 66.9869 56.5456 66.6258 56.5872 66.1847L57.9609 51.622C57.9874 51.3417 57.8944 51.0633 57.7049 50.855C57.5154 50.6468 57.2469 50.5281 56.9653 50.5281H19.9152L18.6541 41.7161L43.6866 30.9313C44.1223 30.7436 44.3661 30.2755 44.2703 29.8109C44.1745 29.3463 43.7653 29.0129 43.2909 29.0129H18.0087L16.7925 20.2261H69.7583L69.7577 29.1068L45.0554 39.3978C44.6154 39.5811 44.3659 40.0495 44.4594 40.517C44.5528 40.9844 44.9633 41.3209 45.44 41.3209Z" fill="#854FEE" stroke="#854FEE" stroke-width="2" stroke-linejoin="round"/>
</g>
<defs>
<clipPath id="clip0_6_5">
<rect width="87" height="100" fill="white"/>
</clipPath>
</defs>
</svg>
