<svg width="67" height="100" viewBox="0 0 67 100" fill="none" xmlns="http://www.w3.org/2000/svg">
<g clip-path="url(#clip0_6_64)">
<path d="M16.6733 99.9999C25.8733 99.9999 33.34 92.5332 33.34 83.3333V66.6666H16.6733C7.47332 66.6666 0.00665283 74.1333 0.00665283 83.3333C0.00665283 92.5332 7.47332 99.9999 16.6733 99.9999Z" fill="#854FEE"/>
<path d="M0.00665283 50C0.00665283 40.8 7.47332 33.3334 16.6733 33.3334H33.34V66.6666H16.6733C7.47332 66.6666 0.00665283 59.2 0.00665283 50Z" fill="#854FEE"/>
<path d="M0.00665283 16.6667C0.00665283 7.46666 7.47332 0 16.6733 0H33.34V33.3333H16.6733C7.47332 33.3333 0.00665283 25.8667 0.00665283 16.6667Z" fill="#854FEE"/>
<path d="M33.34 0H50.0067C59.2067 0 66.6734 7.46666 66.6734 16.6667C66.6734 25.8667 59.2067 33.3333 50.0067 33.3333H33.34V0Z" fill="#854FEE"/>
<path d="M66.6734 50C66.6734 59.2 59.2067 66.6666 50.0067 66.6666C40.8067 66.6666 33.34 59.2 33.34 50C33.34 40.8 40.8067 33.3334 50.0067 33.3334C59.2067 33.3334 66.6734 40.8 66.6734 50Z" fill="#854FEE"/>
</g>
<defs>
<clipPath id="clip0_6_64">
<rect width="66.68" height="100" fill="white"/>
</clipPath>
</defs>
</svg>
