<svg width="103" height="100" viewBox="0 0 103 100" fill="none" xmlns="http://www.w3.org/2000/svg">
<g clip-path="url(#clip0_6_21)">
<path d="M23.8756 86.8394C26.52 88.8237 30.7869 90.3066 37.4489 89.1173C37.4607 91.0306 37.4764 92.8372 37.4891 94.3035C37.5018 95.7678 37.5116 96.8927 37.5116 97.4457C37.5116 97.9138 37.347 98.3526 37.0476 98.6261C36.784 98.8668 36.269 99.1131 35.261 98.9404C15.3502 92.2735 1 73.4487 1 51.2657C1 23.5032 23.4798 1 51.1993 1C78.9215 1 101.398 23.5031 101.398 51.2657C101.398 73.4429 87.0641 92.2618 67.1624 98.935C66.1305 99.1217 65.6156 98.8738 65.3574 98.6377C65.0621 98.3677 64.8974 97.9267 64.8974 97.4457C64.8974 96.8892 64.9039 95.9139 64.9126 94.6059C64.917 93.9388 64.9221 93.1851 64.9271 92.3563C64.9419 89.9066 64.9568 86.8093 64.9568 83.3769C64.9568 79.5201 63.938 76.6029 62.5091 74.6341C67.6773 73.8912 72.9533 72.3778 77.0909 68.9102C81.7903 64.9716 84.8623 58.6518 84.8623 48.5883C84.8623 42.9685 82.9411 38.3107 79.7416 34.6144C80.4459 32.5759 81.6233 27.4869 79.0215 20.8939L78.8477 20.4535L78.3969 20.3088L78.0913 21.261C78.3969 20.3088 78.3959 20.3085 78.3949 20.3082L78.3928 20.3075L78.3884 20.3061L78.3783 20.303L78.3532 20.2956C78.3343 20.2903 78.3111 20.284 78.2836 20.2771C78.2285 20.2633 78.156 20.247 78.0659 20.2307C77.8857 20.1981 77.6356 20.1652 77.3137 20.1504C76.6692 20.1207 75.7423 20.1638 74.5164 20.4227C72.1297 20.9268 68.618 22.2467 63.8466 25.431C59.7918 24.3502 55.4795 23.8101 51.2037 23.7911L51.1948 23.7911C46.9193 23.8101 42.6101 24.3501 38.5626 25.4309C33.7854 22.2465 30.2694 20.9266 27.8799 20.4227C26.6526 20.1638 25.7247 20.1207 25.0796 20.1504C24.7574 20.1652 24.5071 20.1981 24.3267 20.2307C24.2365 20.247 24.164 20.2632 24.1089 20.277C24.0813 20.2839 24.0581 20.2902 24.0392 20.2955L24.0142 20.3029L24.0041 20.306L23.9997 20.3074L23.9976 20.308C23.9966 20.3084 23.9956 20.3087 24.3008 21.261L23.9956 20.3087L23.544 20.4534L23.3703 20.8947C20.7747 27.488 21.9526 32.577 22.6568 34.615C19.4643 38.3098 17.5294 42.9673 17.5294 48.5883C17.5294 58.6287 20.5958 64.9504 25.2839 68.901C29.4155 72.3828 34.6848 73.9153 39.8454 74.6717C38.8698 76.0273 38.0902 77.8312 37.7027 80.0779C36.2752 80.6585 34.1255 81.2852 31.8619 81.0827C29.3903 80.8616 26.6905 79.6481 24.5748 76.0215L24.5688 76.0107C24.5614 75.9977 24.5514 75.9801 24.5386 75.9583C24.5131 75.9145 24.4767 75.8535 24.4295 75.7776C24.3352 75.6259 24.1974 75.414 24.0165 75.1611C23.6555 74.6566 23.1177 73.9815 22.4053 73.2927C20.9873 71.9219 18.8155 70.4401 15.9281 70.2369L15.8996 70.2349L15.8709 70.2345L15.8579 71.2344C15.8709 70.2345 15.8706 70.2345 15.8703 70.2345L15.8695 70.2345L15.8676 70.2345L15.8623 70.2344L15.8465 70.2343C15.8336 70.2343 15.8161 70.2343 15.7945 70.2345C15.7512 70.2349 15.691 70.2359 15.6176 70.2384C15.4716 70.2435 15.2689 70.2548 15.0404 70.28C14.6233 70.326 13.9684 70.4324 13.4451 70.7312C13.1726 70.8867 12.8433 71.1467 12.6601 71.5681C12.4636 72.0203 12.5061 72.492 12.6805 72.9083C12.9879 73.642 13.7727 74.3748 14.9426 75.1763L15.0095 75.222L15.0757 75.2531L15.0768 75.2536L15.0769 75.2537L15.0792 75.2548L15.0872 75.2589C15.0936 75.2623 15.1027 75.267 15.1143 75.2733C15.1274 75.2803 15.1436 75.2893 15.163 75.3003C15.2359 75.3416 15.3522 75.4115 15.5036 75.5152C15.8063 75.7224 16.2499 76.0649 16.7682 76.5853C17.8 77.6212 19.1416 79.3754 20.2543 82.1991L20.2593 82.2134C20.2682 82.2384 20.2805 82.272 20.2964 82.3133C20.3282 82.396 20.3746 82.5101 20.4377 82.6502C20.5638 82.9301 20.7575 83.3155 21.0359 83.7623C21.5926 84.6556 22.4927 85.8018 23.8756 86.8394Z" fill="#854FEE" stroke="#854FEE" stroke-width="2"/>
</g>
<defs>
<clipPath id="clip0_6_21">
<rect width="102.796" height="100" fill="white"/>
</clipPath>
</defs>
</svg>
