<svg width="87" height="100" viewBox="0 0 87 100" fill="none" xmlns="http://www.w3.org/2000/svg">
<g clip-path="url(#clip0_6_9)">
<path d="M43.8201 98.0861L9.1658 88.2782L2.16946 2.17149L84.8208 2.34265L77.4219 88.2879L43.8201 98.0861Z" stroke="#854FEE" stroke-width="4"/>
<path d="M67.6937 41.7406L64.8084 73.8834L43.1131 79.9161L21.5974 73.8857L20.2569 58.2814H29.1699L29.7554 65.8685L29.8086 66.5585L30.4731 66.7518L42.8334 70.3474L43.1029 70.4258L43.3739 70.3525L55.5553 67.0569L56.2173 66.8778L56.2887 66.1956L57.7803 51.9322L57.8958 50.8281H56.7857H19.6623L16.7994 19.386H69.7207L68.8921 28.2939H27.7067H26.6027L26.7116 29.3926L27.8461 40.8392L27.9354 41.7406H28.8412H67.6937Z" fill="#854FEE" stroke="#854FEE" stroke-width="2"/>
</g>
<defs>
<clipPath id="clip0_6_9">
<rect width="87" height="100" fill="white"/>
</clipPath>
</defs>
</svg>
