<svg width="100" height="100" viewBox="0 0 100 100" fill="none" xmlns="http://www.w3.org/2000/svg">
<path d="M2 2H98V98H2V2Z" stroke="#854FEE" stroke-width="4"/>
<path d="M78.879 65.0912C78.8927 65.0975 78.9067 65.1035 78.9207 65.1092C83.2586 66.8687 86.0676 68.656 87.8721 70.4959C89.6538 72.3126 90.4927 74.2173 90.8282 76.3086L91.8156 76.1503L90.8313 76.3266C91.4939 80.0245 90.6671 82.3891 90.5677 82.6733L90.5675 82.6739C90.5618 82.6903 90.5565 82.7068 90.5517 82.7234C89.0874 87.7327 84.2333 90.4606 78.602 91.0022C72.9772 91.5432 66.9774 89.845 63.6205 86.4556C63.3988 86.2052 63.1917 85.9746 62.9974 85.7581C62.0458 84.6983 61.3966 83.9751 60.8039 82.9056C63.6011 81.2963 64.0586 81.0323 66.7739 79.461C67.648 80.7127 68.5502 81.7608 69.605 82.5961C70.8884 83.6125 72.3522 84.2783 74.1786 84.658C74.2059 84.6636 74.2333 84.6681 74.2609 84.6715C76.6697 84.9657 79.2222 84.7219 81.0842 83.6346C82.0332 83.0804 82.821 82.2943 83.2794 81.2415C83.7375 80.1892 83.8285 78.9578 83.5352 77.5775C83.5316 77.5606 83.5276 77.5438 83.5231 77.5271C83.1712 76.2105 82.2386 75.2298 81.1257 74.4468C80.0149 73.6653 78.6124 73.0035 77.1466 72.3661C76.6619 72.1554 76.1682 71.9461 75.6695 71.7347C73.0806 70.6374 70.359 69.4837 68.0812 67.7745C68.0673 67.764 68.053 67.7539 68.0386 67.7442C65.4389 65.9981 63.784 62.9615 63.3487 59.6854C62.9137 56.4119 63.713 53.0247 65.8548 50.5948C65.8661 50.582 65.877 50.5689 65.8876 50.5555C67.2797 48.8029 69.7238 47.4179 72.3826 46.7354C72.8515 46.676 73.3219 46.6147 73.7903 46.5536L73.7986 46.5525C74.2731 46.4906 74.7453 46.429 75.2151 46.3696C80.6255 46.27 83.8378 47.6935 86.1845 50.3153C86.1954 50.3275 86.2066 50.3393 86.218 50.3509C86.7465 50.8863 87.2062 51.4629 87.9528 52.5808C87.7024 52.7402 87.4752 52.8846 87.2637 53.0192C85.7693 53.9698 85.0516 54.4263 82.3864 56.1507C81.3376 54.4845 79.8537 53.3838 78.2742 52.8542C78.2649 52.8511 78.2556 52.8481 78.2463 52.8453C76.8001 52.4071 75.1555 52.4188 73.746 52.9451C72.3206 53.4773 71.0847 54.5645 70.6583 56.2664C70.3651 57.3289 70.4612 58.2914 70.8401 59.7072C70.8532 59.7561 70.8699 59.8039 70.8903 59.8503C71.5411 61.3345 72.9099 62.3007 74.319 63.0427C75.1896 63.5011 76.2112 63.9366 77.2033 64.3595C77.784 64.607 78.3546 64.8502 78.879 65.0912ZM37.4299 84.2815C37.4681 84.3003 37.5076 84.3167 37.5479 84.3304C38.4727 84.646 39.9297 84.904 41.3844 84.6749C42.8616 84.4421 44.4187 83.6839 45.2868 81.9106C45.5883 81.3706 45.7417 80.6514 45.8352 79.9193C45.9347 79.1406 45.9807 78.2132 45.9999 77.1994C46.0228 75.9975 46.0081 74.6107 45.9927 73.1493C45.9823 72.1695 45.9716 71.1561 45.9716 70.1426C45.9716 66.1041 45.9811 62.0796 45.9906 58.0537C45.9993 54.3604 46.008 50.6659 46.0093 46.9601H53.3633C53.3644 49.4993 53.369 52.0347 53.3737 54.5676C53.3843 60.2877 53.3948 65.9951 53.3632 71.7055H53.3631L53.3631 71.7147C53.3661 72.5215 53.3787 73.3037 53.391 74.0653C53.4197 75.8435 53.4466 77.5093 53.3438 79.1139C53.1988 81.3768 52.7982 83.3849 51.8301 85.1697C51.8238 85.1813 51.8177 85.1931 51.8119 85.205C50.4958 87.8796 47.9595 89.6951 44.9095 90.5908C40.119 91.6841 35.6144 91.0371 32.3155 89.0596C30.3666 87.8628 28.772 86.0766 27.6012 83.9693C28.6038 83.3561 29.6049 82.7419 30.6054 82.1281L30.6086 82.1262C31.5935 81.5219 32.5779 80.918 33.5631 80.3154C34.5573 81.9819 35.5176 83.342 37.4299 84.2815Z" fill="#854FEE" stroke="#854FEE" stroke-width="2" stroke-linejoin="round"/>
</svg>
