<svg width="91" height="100" viewBox="0 0 91 100" fill="none" xmlns="http://www.w3.org/2000/svg">
<g clip-path="url(#clip0_6_70)">
<path d="M41.4924 1.27413C43.9719 -0.145137 47.2015 -0.151548 49.6789 1.27413C62.1425 8.31671 74.61 15.3483 87.0715 22.3951C89.4153 23.7154 90.9831 26.3238 90.9592 29.0245V71.3954C90.9767 74.208 89.254 76.8788 86.7812 78.1691C74.3586 85.1729 61.9423 92.1852 49.5218 99.1889C46.991 100.636 43.6966 100.524 41.2448 98.9588C37.5205 96.7998 33.7898 94.6515 30.0652 92.4947C29.3041 92.0409 28.4461 91.6798 27.9087 90.9418C28.3838 90.3015 29.2332 90.2217 29.9234 89.9421C31.478 89.4478 32.9059 88.6543 34.334 87.8843C34.6952 87.6371 35.1361 87.7318 35.4823 87.953C38.667 89.779 41.8236 91.6581 45.019 93.4666C45.7007 93.8602 46.3909 93.3377 46.9736 93.0129C59.164 86.1231 71.3694 79.2593 83.5577 72.3674C84.0093 72.1501 84.2589 71.6707 84.2222 71.176C84.2308 57.1988 84.2244 43.219 84.2265 29.2418C84.2782 28.6805 83.9533 28.1644 83.4458 27.9347C71.0663 20.963 58.6932 13.9806 46.3158 7.00714C46.1013 6.85971 45.8473 6.78061 45.587 6.78022C45.3268 6.77984 45.0725 6.8582 44.8577 7.005C32.4803 13.9806 20.1093 20.9694 7.73186 27.9408C7.22612 28.1708 6.88671 28.6784 6.9469 29.2418C6.94904 43.219 6.9469 57.1988 6.9469 71.1782C6.92544 71.4195 6.97845 71.6617 7.0988 71.872C7.21915 72.0823 7.40106 72.2507 7.62003 72.3545C10.923 74.2276 14.2302 76.0874 17.5353 77.954C19.3973 78.9562 21.6835 79.5517 23.7349 78.7838C25.5452 78.1346 26.8142 76.2872 26.7797 74.365C26.7968 60.4693 26.7711 46.5715 26.7925 32.678C26.7473 32.0611 27.3324 31.5515 27.9322 31.6095C29.5192 31.5988 31.1084 31.5881 32.6954 31.6138C33.3578 31.5988 33.8137 32.2631 33.7318 32.8845C33.7254 46.8682 33.7489 60.8522 33.7211 74.8359C33.7254 78.5627 32.1943 82.6178 28.7471 84.4413C24.5003 86.6413 19.2513 86.1747 15.0558 84.0652C11.4237 82.2524 7.95766 80.113 4.39007 78.1709C1.91089 76.8877 0.196722 74.2062 0.214174 71.3958V29.0245C0.188175 26.2679 1.81829 23.6121 4.23515 22.3111C16.6556 15.3016 29.074 8.2868 41.4924 1.27413Z" fill="#854FEE"/>
<path d="M52.328 30.6248C57.745 30.2761 63.5443 30.4182 68.419 33.0869C72.1931 35.1319 74.2855 39.4239 74.3521 43.6169C74.2467 44.1825 73.6555 44.4945 73.1156 44.4556C71.5438 44.4535 69.9718 44.477 68.4001 44.445C67.7334 44.4706 67.3459 43.8559 67.2622 43.2664C66.8106 41.2602 65.7165 39.2733 63.8281 38.3056C60.9294 36.8543 57.5684 36.9273 54.4075 36.9576C52.1 37.0801 49.6187 37.2799 47.6638 38.6368C46.1629 39.6647 45.7071 41.7396 46.2427 43.4107C46.7477 44.6106 48.1328 44.9977 49.2661 45.3546C55.7944 47.062 62.7123 46.8921 69.116 49.139C71.7672 50.0551 74.3607 51.8358 75.2681 54.6117C76.4552 58.3321 75.9349 62.779 73.2879 65.7657C71.1414 68.2235 68.0151 69.5612 64.897 70.2878C60.7488 71.2127 56.444 71.2362 52.2314 70.8255C48.2703 70.3739 44.1482 69.3333 41.0903 66.6343C38.4754 64.3639 37.1982 60.8262 37.325 57.4118C37.3553 56.8352 37.9294 56.4331 38.4818 56.4804C40.0645 56.4676 41.6473 56.4633 43.23 56.4826C43.8622 56.4373 44.3309 56.9837 44.3633 57.5795C44.6553 59.491 45.3737 61.4972 47.0405 62.6305C50.2573 64.7058 54.2936 64.5637 57.9769 64.6217C61.0284 64.4864 64.4539 64.4454 66.9441 62.4285C68.258 61.2782 68.6473 59.3535 68.2922 57.6978C67.9075 56.2999 66.4452 55.6484 65.1894 55.2225C58.7448 53.1839 51.7496 53.9236 45.3673 51.6182C42.7763 50.7026 40.2707 48.9713 39.2753 46.3094C37.8863 42.542 38.5227 37.8821 41.4471 34.9962C44.2985 32.1256 48.4145 31.0201 52.328 30.6244V30.6248Z" fill="#854FEE"/>
</g>
<defs>
<clipPath id="clip0_6_70">
<rect width="90.8" height="100" fill="white"/>
</clipPath>
</defs>
</svg>
