<svg width="113" height="100" viewBox="0 0 113 100" fill="none" xmlns="http://www.w3.org/2000/svg">
<path d="M112.291 50.0114C112.291 42.5727 102.976 35.523 88.6931 31.1513C91.9891 16.5942 90.5242 5.01259 84.0696 1.30465C82.5819 0.434881 80.8423 0.0228882 78.9426 0.0228882V5.12703C79.9955 5.12703 80.8423 5.33303 81.5519 5.72213C84.6647 7.50744 86.0152 14.3053 84.9623 23.0488C84.7105 25.2003 84.2985 27.4662 83.795 29.778C79.3088 28.6793 74.4107 27.8325 69.2607 27.2831C66.1708 23.0488 62.9664 19.2035 59.7391 15.8389C67.2008 8.90364 74.2047 5.10414 78.9655 5.10414V0C72.6711 0 64.4313 4.48615 56.0998 12.2683C47.7684 4.53193 39.5285 0.0915545 33.2342 0.0915545V5.1957C37.9721 5.1957 44.9989 8.97231 52.4605 15.8618C49.2561 19.2264 46.0518 23.0488 43.0076 27.2831C37.8348 27.8325 32.9366 28.6793 28.4505 29.8009C27.924 27.512 27.5349 25.2918 27.2603 23.1632C26.1845 14.4198 27.512 7.62188 30.602 5.81369C31.2886 5.40169 32.1813 5.21859 33.2342 5.21859V0.114443C31.3115 0.114443 29.572 0.526436 28.0614 1.3962C21.6297 5.10414 20.1877 16.6629 23.5065 31.1742C9.26986 35.5688 0 42.5956 0 50.0114C0 57.4502 9.31564 64.4999 23.5981 68.8716C20.3021 83.4287 21.767 95.0103 28.2216 98.7182C29.7093 99.588 31.4489 100 33.3715 100C39.6658 100 47.9057 95.5138 56.2372 87.7317C64.5686 95.4681 72.8085 99.9084 79.1028 99.9084C81.0254 99.9084 82.765 99.4964 84.2756 98.6267C90.7073 94.9187 92.1493 83.36 88.8304 68.8487C103.021 64.477 112.291 57.4273 112.291 50.0114V50.0114ZM82.4903 34.7448C81.6434 37.6974 80.5906 40.7416 79.4004 43.7858C78.4619 41.9547 77.4777 40.1236 76.402 38.2925C75.3491 36.4614 74.2276 34.6761 73.106 32.9366C76.3562 33.4173 79.4919 34.0124 82.4903 34.7448ZM72.0074 59.1211C70.222 62.211 68.391 65.1408 66.4912 67.8645C63.0808 68.162 59.6247 68.3223 56.1456 68.3223C52.6894 68.3223 49.2333 68.1621 45.8458 67.8874C43.946 65.1637 42.092 62.2568 40.3067 59.1897C38.5672 56.1913 36.9879 53.1472 35.5459 50.0801C36.965 47.013 38.5672 43.946 40.2838 40.9476C42.0691 37.8576 43.9002 34.9279 45.8 32.2042C49.2104 31.9066 52.6665 31.7464 56.1456 31.7464C59.6018 31.7464 63.0579 31.9066 66.4454 32.1813C68.3452 34.905 70.1992 37.8119 71.9845 40.8789C73.724 43.8773 75.3033 46.9215 76.7453 49.9886C75.3033 53.0556 73.724 56.1227 72.0074 59.1211ZM79.4004 56.1456C80.6363 59.2126 81.6892 62.2797 82.559 65.2552C79.5606 65.9876 76.402 66.6056 73.1289 67.0863C74.2504 65.3239 75.372 63.5157 76.4249 61.6617C77.4777 59.8306 78.4619 57.9766 79.4004 56.1456ZM56.1914 80.5676C54.0627 78.3703 51.9341 75.9213 49.8284 73.2433C51.8883 73.3349 53.9941 73.4035 56.1227 73.4035C58.2742 73.4035 60.4029 73.3577 62.4857 73.2433C60.4258 75.9213 58.2971 78.3703 56.1914 80.5676ZM39.1623 67.0863C35.9121 66.6056 32.7764 66.0105 29.778 65.2781C30.6249 62.3255 31.6777 59.2813 32.8679 56.2371C33.8064 58.0682 34.7906 59.8993 35.8663 61.7304C36.9421 63.5615 38.0408 65.3468 39.1623 67.0863ZM56.0769 19.4553C58.2056 21.6526 60.3342 24.1016 62.4399 26.7796C60.38 26.688 58.2742 26.6194 56.1456 26.6194C53.9941 26.6194 51.8654 26.6651 49.7826 26.7796C51.8426 24.1016 53.9712 21.6526 56.0769 19.4553ZM39.1394 32.9366C38.0179 34.699 36.8963 36.5072 35.8435 38.3612C34.7906 40.1923 33.8064 42.0233 32.8679 43.8544C31.632 40.7874 30.5791 37.7203 29.7093 34.7448C32.7077 34.0352 35.8664 33.4173 39.1394 32.9366V32.9366ZM18.4253 61.593C10.3227 58.1369 5.08126 53.6049 5.08126 50.0114C5.08126 46.4179 10.3227 41.8631 18.4253 38.4298C20.3937 37.583 22.5452 36.8276 24.7654 36.1181C26.0701 40.6043 27.7867 45.2735 29.9153 50.0572C27.8096 54.818 26.1158 59.4644 24.8341 63.9277C22.5681 63.2181 20.4166 62.4399 18.4253 61.593ZM30.7393 94.3008C27.6265 92.5154 26.2761 85.7176 27.3289 76.9741C27.5807 74.8226 27.9927 72.5566 28.4962 70.2449C32.9824 71.3436 37.8805 72.1904 43.0305 72.7398C46.1204 76.9741 49.3248 80.8194 52.5521 84.184C45.0904 91.1192 38.0865 94.9187 33.3257 94.9187C32.2957 94.8959 31.426 94.6899 30.7393 94.3008V94.3008ZM85.0309 76.8597C86.1067 85.6031 84.7792 92.401 81.6892 94.2092C81.0025 94.6212 80.1099 94.8043 79.057 94.8043C74.3191 94.8043 67.2923 91.0277 59.8307 84.1382C63.0351 80.7736 66.2394 76.9512 69.2836 72.7169C74.4564 72.1675 79.3546 71.3207 83.8407 70.1991C84.3672 72.5109 84.7792 74.7311 85.0309 76.8597V76.8597ZM93.843 61.593C91.8746 62.4399 89.7231 63.1952 87.5029 63.9048C86.1983 59.4186 84.4816 54.7494 82.353 49.9657C84.4587 45.2048 86.1525 40.5585 87.4342 36.0952C89.7002 36.8048 91.8517 37.583 93.8659 38.4298C101.968 41.886 107.21 46.4179 107.21 50.0114C107.187 53.6049 101.946 58.1598 93.843 61.593V61.593Z" fill="#854FEE"/>
<path d="M56.1227 60.4715C61.8996 60.4715 66.5827 55.7884 66.5827 50.0114C66.5827 44.2345 61.8996 39.5514 56.1227 39.5514C50.3457 39.5514 45.6626 44.2345 45.6626 50.0114C45.6626 55.7884 50.3457 60.4715 56.1227 60.4715Z" fill="#854FEE"/>
</svg>
