<svg width="134" height="100" viewBox="0 0 134 100" fill="none" xmlns="http://www.w3.org/2000/svg">
<g clip-path="url(#clip0_6_60)">
<path d="M114.74 57.4854C110.078 57.5118 106.042 58.632 102.656 60.3C101.406 57.8245 100.156 55.6613 99.9481 54.0459C99.7137 52.1697 99.4273 51.0229 99.7137 48.7821C99.9999 46.5408 101.302 43.3616 101.302 43.101C101.276 42.8665 101.015 41.7199 98.3333 41.6939C95.6512 41.6678 93.3333 42.215 93.0729 42.9186C92.8124 43.6222 92.2916 45.2378 91.9531 46.9056C91.4843 49.3551 86.5885 58.0327 83.802 62.5929C82.8906 60.8209 82.1093 59.2574 81.9528 58.0063C81.7187 56.1304 81.432 54.9835 81.7187 52.7427C82.0052 50.5014 83.3072 47.3225 83.3072 47.062C83.2812 46.8274 83.0208 45.6808 80.3388 45.6548C77.6562 45.6287 75.3388 46.176 75.0783 46.8795C74.8179 47.5831 74.5315 49.2509 73.9585 50.8665C73.4114 52.4822 66.901 66.9708 65.2083 70.7493C64.3489 72.6777 63.594 74.2151 63.0468 75.2575C62.5 76.2998 63.0208 75.3357 62.9687 75.4399C62.5 76.3259 62.2395 76.821 62.2395 76.821V76.8473C61.875 77.4988 61.4843 78.1239 61.3018 78.1239C61.1716 78.1239 60.9112 76.378 61.3539 73.9809C62.3174 68.9513 64.6612 61.1079 64.6354 60.8212C64.6354 60.6909 65.0778 59.3095 63.1247 58.6062C61.2237 57.9026 60.5468 59.0753 60.3903 59.0753C60.2341 59.0753 60.1039 59.4922 60.1039 59.4922C60.1039 59.4922 62.2132 50.6586 56.0674 50.6586C52.2132 50.6586 46.9008 54.854 44.2705 58.6847C42.6039 59.5967 39.0622 61.5248 35.3122 63.5837C33.8799 64.3655 32.3956 65.1993 30.9893 65.955L30.7031 65.6418C23.2552 57.6939 9.47916 52.0652 10.0521 41.3812C10.2604 37.4984 11.6146 27.2573 36.5107 14.8534C56.9013 4.69049 73.2294 7.47877 76.0677 13.6807C80.1041 22.5407 67.3437 39.0098 46.1461 41.3812C38.0732 42.2932 33.8281 39.1662 32.7607 37.9935C31.6409 36.7688 31.4846 36.7166 31.0679 36.9512C30.3909 37.316 30.8075 38.4105 31.0679 39.0619C31.6929 40.7036 34.2971 43.6222 38.7242 45.0815C42.6041 46.3584 52.0836 47.062 63.5419 42.632C76.3804 37.6548 86.4065 23.8436 83.4638 12.2996C80.469 0.547156 60.9898 -3.30953 42.5784 3.2312C31.6146 7.14001 19.7396 13.2377 11.1979 21.2378C1.04167 30.7231 -0.572916 39.0098 0.104167 42.4496C2.47422 54.7232 19.375 62.7232 26.1458 68.6386C25.8073 68.8207 25.4948 69.0031 25.2083 69.1597C21.8229 70.8272 8.93229 77.5767 5.70312 84.7165C2.05729 92.7947 6.27604 98.6061 9.08854 99.3878C17.7864 101.811 26.6927 97.4595 31.5104 90.2934C36.3018 83.1272 35.7291 73.8242 33.5156 69.5767L33.4372 69.4203L36.0935 67.8568C37.8125 66.8405 39.5052 65.9024 40.9893 65.0943C40.1562 67.3614 39.557 70.0455 39.2448 73.9543C38.8802 78.5409 40.7552 84.482 43.2291 86.8273C44.3229 87.8433 45.625 87.8696 46.4323 87.8696C49.2968 87.8696 50.5989 85.498 52.0312 82.6579C53.8021 79.1921 55.3646 75.179 55.3646 75.179C55.3646 75.179 53.4114 86.0455 58.75 86.0455C60.7031 86.0455 62.6562 83.5178 63.5416 82.2149V82.241C63.5416 82.241 63.5937 82.1628 63.6979 81.9804C63.8071 81.8187 63.9114 81.6537 64.0104 81.4855V81.4334C64.7916 80.0783 66.5364 76.9774 69.1406 71.8438C72.4997 65.2249 75.7291 56.9382 75.7291 56.9382C75.7291 56.9382 76.0416 58.9708 77.0052 62.3063C77.5778 64.287 78.8278 66.4496 79.7914 68.5604C79.0101 69.6549 78.5414 70.2805 78.5414 70.2805L78.5674 70.3066C77.9427 71.1405 77.2393 72.0267 76.5104 72.9125C73.8541 76.0916 70.677 79.714 70.2604 80.7564C69.7656 81.9809 69.8697 82.8929 70.8333 83.6228C71.5364 84.144 72.7864 84.248 74.1145 84.144C76.5104 83.9874 78.177 83.3883 79.0104 83.0232C80.3124 82.5542 81.7968 81.8506 83.2291 80.8082C85.8333 78.8802 87.4218 76.144 87.2656 72.4958C87.1874 70.4893 86.5364 68.5088 85.7291 66.6326C85.9635 66.2938 86.1981 65.9548 86.4322 65.5902C90.5468 59.5704 93.7239 52.9517 93.7239 52.9517C93.7239 52.9517 94.0364 54.9843 94.9999 58.3198C95.4945 60.0137 96.4843 61.8641 97.3697 63.6882C93.5156 66.8413 91.0937 70.4895 90.2604 72.8869C88.7239 77.3169 89.9218 79.3234 92.1874 79.7925C93.2028 80.0009 94.6614 79.5319 95.7549 79.0628C97.1091 78.6198 98.7497 77.8639 100.26 76.7436C102.865 74.8153 105.365 72.1312 105.234 68.5091C105.156 66.8413 104.713 65.1996 104.115 63.6361C107.396 62.281 111.64 61.4993 117.031 62.1507C128.62 63.5058 130.911 70.7501 130.469 73.7729C130.026 76.796 127.604 78.4635 126.797 78.9847C125.99 79.4798 125.729 79.6624 125.807 80.027C125.911 80.5745 126.276 80.5482 126.979 80.4442C127.943 80.2876 133.073 77.9686 133.281 72.3923C133.594 65.2251 126.797 57.4075 114.74 57.4854V57.4854ZM25.3646 87.6354C21.5364 91.8308 16.1458 93.4204 13.8542 92.0653C11.3802 90.6321 12.3435 84.4562 17.0573 80.0002C19.9219 77.2901 23.6458 74.7884 26.0937 73.251C26.6406 72.9122 27.4739 72.4173 28.4635 71.8177C28.6198 71.7138 28.7239 71.6614 28.7239 71.6614C28.9062 71.5571 29.1146 71.4268 29.3229 71.2966C31.0677 77.6549 29.401 83.2314 25.3646 87.6354V87.6354ZM53.3593 68.5865C52.0312 71.8438 49.2187 80.2086 47.526 79.7396C46.0674 79.3487 45.1823 73.0164 47.2393 66.7623C48.281 63.609 50.4945 59.8568 51.7966 58.3972C53.9062 56.0519 56.1976 55.2702 56.7708 56.2344C57.4479 57.4854 54.1927 66.5539 53.3593 68.5865ZM76.4583 79.6353C75.8854 79.9222 75.3645 80.1305 75.1302 79.9744C74.9479 79.8701 75.3643 79.4793 75.3643 79.4793C75.3643 79.4793 78.2549 76.3783 79.4007 74.945C80.0518 74.1114 80.833 73.1472 81.6664 72.0525V72.3652C81.6666 76.1174 78.0729 78.6191 76.4583 79.6353ZM94.2705 75.5702C93.8538 75.2575 93.9062 74.2933 95.3122 71.2705C95.8593 70.0718 97.1091 68.0653 99.2705 66.163C99.5309 66.9447 99.6874 67.7002 99.6611 68.404C99.6354 73.0946 96.302 74.8405 94.2705 75.5702Z" fill="#854FEE"/>
</g>
<defs>
<clipPath id="clip0_6_60">
<rect width="133.333" height="100" fill="white"/>
</clipPath>
</defs>
</svg>
